# xmcd
#
# Track frame offsets:
#	150
#	17419
#	36371
#	59069
#	88676
#	117503
#	145504
#	171671
#	195024
#	230721
#	262346
#
# Disc length: 3588 seconds
#
# Revision: 16
# Processed by: cddbd v1.5.2PL0 Copyright (c) Steve Scherf et al.
# Submitted via: Jack! The Knife 20 Magnifico
#
DISCID=9e0e020b
DTITLE=Stratovarius - Fourth Dimension
DYEAR=1995
DGENRE=Metal
TTITLE0=Against The Wind
TTITLE1=Distant Skies
TTITLE2=Galaxies
TTITLE3=Winter
TTITLE4=Stratovarius
TTITLE5=Lord Of The Wasteland
TTITLE6=030366
TTITLE7=Nightfall
TTITLE8=We Hold The Key
TTITLE9=Twilight Symphony
TTITLE10=Call Of The Wilderness
EXTD=Timo Tolkki
EXTT0=Timo Tolkki
EXTT1=Timo Tolkki
EXTT2=Timo Tolkki
EXTT3=Timo Tolkki
EXTT4=Timo Tolkki
EXTT5=Timo Tolkki
EXTT6=Timo Tolkki
EXTT7=Timo Tolkki
EXTT8=Timo Tolkki
EXTT9=Timo Tolkki
EXTT10=Timo Tolkki
PLAYORDER=
